<?xml version="1.0" encoding="utf-8"?>
<!-- Generator: Adobe Illustrator 18.1.0, SVG Export Plug-In . SVG Version: 6.00 Build 0)  -->
<svg version="1.1" id="Layer_1" xmlns="http://www.w3.org/2000/svg" xmlns:xlink="http://www.w3.org/1999/xlink" x="0px" y="0px"
	 viewBox="0 0 700 700" enable-background="new 0 0 700 700" xml:space="preserve">
<path display="none" fill="#F15B2A" d="M1453.6,3235.3c60.2-17.5,107.2-23,138.9-15.3c15.3,3.3,24.1,8.7,28.4,13.1
	c4.4-4.4,13.1-9.8,27.3-13.1c31.7-6.6,78.7-2.2,137.8,15.3c90.8,27.3,171.7,21.9,225.3,10.9c1.1-9.8,1.1-18.6,1.1-27.3
	c0-217.7-176.1-394.8-394.8-394.8S1225,3000.2,1225,3217.8c0,9.8,0,18.6,1.1,27.3C1280.8,3256.1,1361.7,3261.6,1453.6,3235.3z"/>
<text transform="matrix(1 0 0 1 1146.2211 3459.1821)" display="none" enable-background="new    " font-family="'ArialMT'" font-size="26.4578"> </text>
<text transform="matrix(1 0 0 1 1287.204 3200.9463)" display="none" fill="#FFFFFF" enable-background="new    " font-family="'Superclarendon-Regular'" font-size="197.2348">BARS</text>
<text transform="matrix(1 0 0 1 1411.928 2965.0835)" display="none" fill="#FFFFFF" enable-background="new    " font-family="'Superclarendon-Regular'" font-size="97.0703">BOOKS</text>
<text transform="matrix(1 0 0 1 1322.217 3045.1277)" display="none" fill="#FFFFFF" enable-background="new    " font-family="'Superclarendon-Regular'" font-size="94.0078">THROUGH</text>
<g display="none">
	<rect x="1419.7" y="3171.9" display="inline" fill="#FFFFFF" width="399.2" height="3.3"/>
</g>
<g display="none">
	<rect x="1419.7" y="3037.3" display="inline" fill="#FFFFFF" width="399.2" height="3.3"/>
</g>
<path display="none" fill="#231F20" d="M2003.8,3259.4c-21.9,3.3-49.2,6.6-80.9,6.6c-40.5,0-88.6-5.5-138.9-19.7
	c-133.4-39.4-156.4-3.3-156.4-3.3l-5.5,9.8l-5.5-9.8c0,0-26.2-36.1-159.7,2.2c-90.8,26.2-169.5,21.9-220.9,13.1
	c-3.3,0-6.6-1.1-9.8-2.2c12,120.3,77.7,224.2,173.9,287.7v-12h19.7v-17.5h9.8v-91.9c0-9.8,6.6-18.6,15.3-23v-30.6
	c0-13.1,14.2-29.5,23-32.8l0,0c10.9,4.4,23,20.8,23,32.8v30.6c8.8,3.3,15.3,12,15.3,23v91.9h8.8v17.5h21.9v-26.2h14.2v26.2h25.2
	v-170.6c0-1.1,0-1.1,0-2.2l15.3-38.3c0-1.1,0-1.1,0-2.2v-23c0-1.1,1.1-3.3,1.1-3.3l25.2-24.1c1.1-1.1,2.2-1.1,3.3-1.1
	c1.1,0,2.2,0,3.3,1.1l25.2,24.1c1.1,1.1,1.1,2.2,1.1,3.3v23l0,0l16.4,39.4c0,1.1,0,1.1,0,2.2v167.3h4.4v-24.1h21.9v24.1h9.8V3500
	h15.3v-4.4h19.7v36.1h4.4v-45.9h31.7v94.1c9.8-4.4,19.7-8.7,28.4-14.2v-126.9l0,0l-7.7-13.1h7.7v-8.7h4.4l31.7-31.7l31.7,31.7h4.4
	v9.8h7.7l-7.7,13.1v76.6c74.4-63.4,123.6-155.3,134.5-258.1C2009.2,3259.4,2007,3259.4,2003.8,3259.4z"/>
<path display="none" fill="#FFFFFF" d="M1558.6,3116.1h-1.1l-1.1-1.1c1.1,0,1.1,0,2.2,0C1557.5,3115,1557.5,3115,1558.6,3116.1z"/>
<path display="none" fill="#FFFFFF" d="M1471.1,3112.8L1471.1,3112.8c0,1.1-1.1,1.1-1.1,0C1470,3112.8,1471.1,3111.7,1471.1,3112.8
	C1471.1,3111.7,1471.1,3111.7,1471.1,3112.8z"/>
<g>
	<rect fill="#F26522" width="700" height="700"/>
	<g enable-background="new    ">
		<path fill="#FFFFFF" d="M121.4,176.1c5.5,7.7,8.7,17.5,8.7,28.4c0,12-3.3,21.9-8.7,30.6s-14.2,12-24.1,12c-6.6,0-12-1.1-15.3-4.4
			c-2.2-1.1-4.4-4.4-7.7-7.7v9.8H53.6V138.9h20.8v37.2c2.2-3.3,5.5-6.6,8.8-8.8c3.3-1.1,7.7-3.3,13.1-3.3
			C107.2,164.1,114.8,168.4,121.4,176.1z M103.9,223.1c3.3-4.4,4.4-9.8,4.4-16.4c0-5.5-1.1-9.8-2.2-14.2c-2.2-6.6-7.7-9.8-15.3-9.8
			s-13.1,3.3-15.3,9.8c-1.1,3.3-2.2,8.8-2.2,14.2c0,6.6,1.1,12,4.4,16.4c3.3,4.4,7.7,6.6,14.2,6.6
			C97.3,229.7,100.6,227.5,103.9,223.1z"/>
		<path fill="#FFFFFF" d="M207.8,235.2c-6.6,7.7-16.4,12-29.5,12c-13.1,0-23-4.4-29.5-12c-6.6-7.7-9.8-17.5-9.8-29.5
			c0-10.9,3.3-20.8,9.8-29.5c6.6-8.8,16.4-12,29.5-12c13.1,0,23,4.4,29.5,12c6.6,7.7,9.8,17.5,9.8,29.5
			C217.7,216.6,214.4,226.4,207.8,235.2z M191.4,223.1c3.3-4.4,4.4-9.8,4.4-18.6s-1.1-14.2-4.4-18.6c-3.3-4.4-7.7-6.6-14.2-6.6
			c-6.6,0-10.9,2.2-14.2,6.6c-3.3,4.4-4.4,9.8-4.4,18.6s1.1,14.2,4.4,18.6c3.3,4.4,7.7,6.6,14.2,6.6
			C183.8,229.7,188.1,227.5,191.4,223.1z"/>
	</g>
	<g enable-background="new    ">
		<path fill="#FFFFFF" d="M293.1,235.2c-6.6,7.7-16.4,12-29.5,12c-13.1,0-23-4.4-29.5-12c-6.6-7.7-9.8-17.5-9.8-29.5
			c0-10.9,3.3-20.8,9.8-29.5c6.6-8.8,16.4-12,29.5-12c13.1,0,23,4.4,29.5,12c6.6,7.7,9.8,17.5,9.8,29.5
			C303,216.6,299.7,226.4,293.1,235.2z M276.7,223.1c3.3-4.4,4.4-9.8,4.4-18.6s-1.1-14.2-4.4-18.6c-3.3-4.4-7.7-6.6-14.2-6.6
			c-6.6,0-10.9,2.2-14.2,6.6c-3.3,4.4-4.4,9.8-4.4,18.6s1.1,14.2,4.4,18.6c3.3,4.4,7.7,6.6,14.2,6.6
			C269.1,229.7,273.4,227.5,276.7,223.1z"/>
		<path fill="#FFFFFF" d="M313.9,138.9h19.7v56.9l26.3-29.5H385l-28.4,29.5l29.5,49.2h-25.2l-18.6-33.9l-8.8,8.8v24.1h-19.7
			L313.9,138.9L313.9,138.9z"/>
	</g>
	<g enable-background="new    ">
		<path fill="#FFFFFF" d="M403.6,219.8c0,3.3,1.1,6.6,3.3,7.7c2.2,2.2,7.7,4.4,14.2,4.4c4.4,0,7.7-1.1,9.8-2.2
			c2.2-1.1,3.3-3.3,3.3-5.5s-1.1-4.4-3.3-5.5c-2.2-1.1-8.8-3.3-21.9-6.6c-8.8-2.2-15.3-5.5-18.6-8.8c-3.3-3.3-5.5-7.7-5.5-14.2
			c0-7.7,3.3-13.1,8.8-18.6c5.5-5.5,13.1-7.7,24.1-7.7c9.8,0,17.5,2.2,24.1,5.5c6.6,4.4,9.8,10.9,10.9,19.7H432
			c0-2.2-1.1-4.4-2.2-6.6c-2.2-3.3-6.6-4.4-12-4.4c-4.4,0-7.7,1.1-9.8,2.2c-2.2,1.1-3.3,3.3-3.3,4.4c0,2.2,1.1,4.4,3.3,5.5
			c2.2,1.1,8.7,3.3,21.9,5.5c7.7,2.2,14.2,4.4,18.6,8.7c4.4,4.4,6.6,8.8,6.6,14.2c0,7.7-3.3,14.2-8.7,18.6s-14.2,7.7-26.3,7.7
			c-12,0-21.9-2.2-27.3-7.7s-9.8-8.8-9.8-16.4H403.6z"/>
	</g>
	<g enable-background="new    ">
		<path fill="#FFFFFF" d="M45.9,315v-14.2h10.9v-21.9h19.7v21.9h13.1V315h-12v41.6c0,3.3,0,5.5,1.1,5.5c1.1,1.1,3.3,1.1,7.7,1.1
			c1.1,0,1.1,0,2.2,0c1.1,0,1.1,0,2.2,0v15.3h-9.8c-9.8,0-16.4-1.1-19.7-5.5c-2.2-2.2-3.3-5.5-3.3-10.9v-48.1h-12V315z"/>
	</g>
	<g enable-background="new    ">
		<path fill="#FFFFFF" d="M156.4,299.7c4.4,2.2,7.7,4.4,9.8,7.7s3.3,5.5,4.4,8.8c0,3.3,1.1,7.7,1.1,15.3v45.9h-20.8v-48.1
			c0-4.4-1.1-7.7-2.2-9.8c-2.2-3.3-5.5-5.5-10.9-5.5s-9.8,2.2-12,5.5c-3.3,3.3-4.4,8.8-4.4,15.3v42.7h-20.8v-105h20.8v37.2
			c3.3-4.4,6.6-7.7,9.8-9.8c4.4-2.2,7.7-2.2,12-2.2C148.8,297.5,153.1,298.6,156.4,299.7z"/>
	</g>
	<g enable-background="new    ">
		<path fill="#FFFFFF" d="M224.2,297.5c0,0,1.1,0,2.2,0v20.8c-1.1,0-2.2,0-3.3,0c-1.1,0-2.2,0-2.2,0c-8.8,0-14.2,2.2-16.4,7.7
			c-1.1,3.3-2.2,7.7-2.2,14.2v37.2h-20.8v-78.8h19.7v13.1c3.3-5.5,5.5-8.8,8.7-10.9C212.2,299.7,217.7,297.5,224.2,297.5
			L224.2,297.5z"/>
	</g>
	<g enable-background="new    ">
		<path fill="#FFFFFF" d="M300.8,368.6c-6.6,7.7-16.4,12-29.5,12c-13.1,0-23-4.4-29.5-12s-10.9-18.6-10.9-29.5s3.3-20.8,9.8-29.5
			c6.6-8.8,16.4-12,29.5-12c13.1,0,23,4.4,29.5,12c6.6,7.7,9.8,17.5,9.8,29.5C310.6,350,307.3,359.8,300.8,368.6z M284.4,356.6
			c3.3-4.4,4.4-9.8,4.4-18.6c0-8.8-1.1-14.2-4.4-18.6s-7.7-6.6-14.2-6.6c-6.6,0-10.9,2.2-14.2,6.6c-2.2,5.5-4.4,12-4.4,19.7
			s1.1,14.2,4.4,18.6c3.3,4.4,7.7,6.6,14.2,6.6C276.7,364.2,281.1,360.9,284.4,356.6z"/>
		<path fill="#FFFFFF" d="M342.3,299.7v47c0,4.4,0,7.7,1.1,9.8c2.2,4.4,5.5,5.5,10.9,5.5c6.6,0,12-3.3,14.2-8.8
			c1.1-3.3,2.2-6.6,2.2-12v-42.7h20.8v78.8h-19.7v-10.9c0,0-1.1,1.1-1.1,2.2c-1.1,1.1-2.2,2.2-2.2,3.3c-3.3,3.3-6.6,4.4-8.7,5.5
			c-3.3,1.1-6.6,1.1-10.9,1.1c-12,0-19.7-4.4-23-12c-2.2-4.4-3.3-10.9-3.3-20.8v-47h19.7V299.7z"/>
	</g>
	<g enable-background="new    ">
		<path fill="#FFFFFF" d="M441.9,299.7c5.5,2.2,8.7,5.5,12,10.9v-10.9h19.7v74.4c0,9.8-2.2,17.5-5.5,23
			c-5.5,8.7-17.5,13.1-33.9,13.1c-9.8,0-18.6-2.2-24.1-5.5s-9.8-9.8-10.9-17.5h21.9c1.1,2.2,1.1,4.4,3.3,5.5
			c2.2,2.2,5.5,3.3,10.9,3.3c7.7,0,12-2.2,15.3-7.7c1.1-3.3,2.2-8.8,2.2-16.4v-5.5c-2.2,3.3-4.4,5.5-6.6,7.7
			c-4.4,3.3-9.8,4.4-16.4,4.4c-9.8,0-18.6-3.3-24.1-10.9c-5.5-6.6-8.8-16.4-8.8-28.4s3.3-21.9,8.8-29.5c5.5-7.7,14.2-12,24.1-12
			C435.3,297.5,438.6,298.6,441.9,299.7z M449.5,355.5c3.3-3.3,5.5-9.8,5.5-17.5s-1.1-13.1-4.4-16.4s-7.7-5.5-12-5.5
			c-7.7,0-12,3.3-15.3,9.8c-1.1,3.3-2.2,7.7-2.2,13.1c0,4.4,1.1,8.8,2.2,12c3.3,6.6,7.7,9.8,15.3,9.8
			C441.9,360.9,446.2,359.8,449.5,355.5z"/>
	</g>
	<g enable-background="new    ">
		<path fill="#FFFFFF" d="M540.3,299.7c4.4,2.2,7.7,4.4,9.8,7.7c2.2,3.3,3.3,5.5,4.4,8.8c0,3.3,1.1,7.7,1.1,15.3v45.9h-20.8v-48.1
			c0-4.4-1.1-7.7-2.2-9.8c-2.2-3.3-5.5-5.5-10.9-5.5s-9.8,2.2-12,5.5c-3.3,3.3-4.4,8.8-4.4,15.3v42.7h-20.8v-105h20.8v37.2
			c3.3-4.4,6.6-7.7,9.8-9.8c4.4-2.2,7.7-2.2,12-2.2C532.7,297.5,537,298.6,540.3,299.7z"/>
	</g>
	<g enable-background="new    ">
		<path d="M121.4,441.9c5.5,7.7,8.7,17.5,8.7,28.4c0,12-3.3,21.9-8.7,30.6c-5.5,8.7-14.2,12-24.1,12c-6.6,0-12-1.1-15.3-4.4
			c-2.2-1.1-4.4-4.4-7.7-7.7v9.8H53.6V404.7h20.8v37.2c2.2-3.3,5.5-6.6,8.8-8.8c3.3-2.2,8.8-3.3,14.2-3.3
			C107.2,430.9,114.8,435.3,121.4,441.9z M103.9,490c3.3-4.4,4.4-9.8,4.4-16.4c0-5.5-1.1-9.8-2.2-14.2c-3.3-6.6-7.7-9.8-15.3-9.8
			s-13.1,3.3-15.3,9.8c-1.1,3.3-2.2,8.8-2.2,14.2c0,6.6,1.1,12,4.4,16.4c3.3,4.4,7.7,6.6,13.1,6.6C97.3,496.6,100.6,494.4,103.9,490
			z"/>
		<path d="M173.9,463.8c3.3,0,6.6-1.1,7.7-2.2c3.3-1.1,4.4-3.3,4.4-5.5c0-3.3-1.1-5.5-3.3-6.6c-2.2-1.1-5.5-2.2-9.8-2.2
			s-8.8,1.1-10.9,3.3c-1.1,2.2-2.2,4.4-3.3,7.7h-19.7c0-6.6,2.2-12,5.5-16.4c5.5-6.6,14.2-9.8,28.4-9.8c8.7,0,16.4,2.2,23,5.5
			s9.8,9.8,9.8,19.7v36.1c0,2.2,0,5.5,0,8.8c0,2.2,1.1,4.4,1.1,5.5c1.1,1.1,2.2,2.2,3.3,2.2v3.3h-21.9c-1.1-1.1-1.1-3.3-1.1-4.4
			s0-3.3-1.1-4.4c-3.3,3.3-6.6,5.5-9.8,7.7c-4.4,2.2-9.8,3.3-15.3,3.3c-7.7,0-13.1-2.2-17.5-6.6c-4.4-4.4-6.6-9.8-6.6-17.5
			c0-9.8,3.3-16.4,10.9-20.8c4.4-2.2,9.8-4.4,18.6-5.5L173.9,463.8z M185.9,473.6c-1.1,1.1-2.2,1.1-4.4,2.2s-3.3,1.1-5.5,1.1
			l-4.4,1.1c-4.4,1.1-7.7,2.2-9.8,3.3c-3.3,2.2-4.4,4.4-4.4,8.7c0,3.3,1.1,5.5,3.3,7.7c2.2,1.1,4.4,2.2,7.7,2.2
			c4.4,0,8.8-1.1,12-4.4c3.3-2.2,5.5-7.7,5.5-14.2L185.9,473.6L185.9,473.6z"/>
		<path d="M266.9,430.9c0,0,1.1,0,2.2,0v20.8c-1.1,0-2.2,0-3.3,0s-2.2,0-2.2,0c-8.7,0-14.2,2.2-16.4,7.7c-1.1,3.3-2.2,7.7-2.2,14.2
			v37.2h-20.8V432h19.7v13.1c3.3-5.5,5.5-8.8,8.8-10.9C254.8,433.1,260.3,430.9,266.9,430.9C265.8,430.9,266.9,430.9,266.9,430.9z"
			/>
	</g>
	<g enable-background="new    ">
		<path d="M289.8,485.6c0,3.3,1.1,6.6,3.3,7.7c2.2,2.2,7.7,4.4,14.2,4.4c4.4,0,7.7-1.1,9.8-2.2c2.2-1.1,3.3-3.3,3.3-5.5
			s-1.1-4.4-3.3-5.5c-2.2-1.1-8.7-3.3-21.9-6.6c-8.7-2.2-15.3-5.5-18.6-8.8s-5.5-7.7-5.5-14.2c0-7.7,3.3-13.1,8.8-18.6
			s13.1-7.7,24.1-7.7c9.8,0,17.5,2.2,24.1,5.5c6.6,4.4,9.8,10.9,10.9,19.7h-20.8c0-2.2-1.1-4.4-2.2-6.6c-2.2-3.3-6.6-4.4-12-4.4
			c-4.4,0-7.7,1.1-9.8,2.2c-2.2,1.1-3.3,3.3-3.3,4.4c0,2.2,1.1,4.4,3.3,5.5c2.2,1.1,8.8,3.3,21.9,5.5c7.7,2.2,14.2,4.4,18.6,8.8
			c4.4,4.4,6.6,8.8,6.6,14.2c0,7.7-3.3,14.2-8.8,18.6c-5.5,4.4-15.3,12-27.3,12s-21.9-2.2-27.3-7.7s-8.8-12-8.8-19.7h20.8V485.6z"/>
	</g>
	<rect x="53.6" y="551.2" width="132.3" height="20.8"/>
</g>
</svg>
