<?xml version="1.0" encoding="utf-8"?>
<!-- Generator: Adobe Illustrator 18.1.0, SVG Export Plug-In . SVG Version: 6.00 Build 0)  -->
<svg version="1.1" id="Layer_1" xmlns="http://www.w3.org/2000/svg" xmlns:xlink="http://www.w3.org/1999/xlink" x="0px" y="0px"
	 viewBox="0 0 64 64" style="enable-background:new 0 0 64 64;" xml:space="preserve">
<path style="display:none;fill:#F15B2A;" d="M132.9,295.8c5.5-1.6,9.8-2.1,12.7-1.4c1.4,0.3,2.2,0.8,2.6,1.2
	c0.4-0.4,1.2-0.9,2.5-1.2c2.9-0.6,7.2-0.2,12.6,1.4c8.3,2.5,15.7,2,20.6,1c0.1-0.9,0.1-1.7,0.1-2.5c0-19.9-16.1-36.1-36.1-36.1
	S112,274.3,112,294.2c0,0.9,0,1.7,0.1,2.5C117.1,297.7,124.5,298.2,132.9,295.8z"/>
<text transform="matrix(1 0 0 1 104.7968 316.2682)" style="display:none;enable-background:new    ; font-family:'ArialMT'; font-size:2.419;"> </text>
<text transform="matrix(1 0 0 1 117.6873 292.6577)" style="display:none;fill:#FFFFFF;enable-background:new    ; font-family:'Superclarendon-Regular'; font-size:18.0329;">BARS</text>
<text transform="matrix(1 0 0 1 129.091 271.0935)" style="display:none;fill:#FFFFFF;enable-background:new    ; font-family:'Superclarendon-Regular'; font-size:8.875;">BOOKS</text>
<text transform="matrix(1 0 0 1 120.8886 278.4116)" style="display:none;fill:#FFFFFF;enable-background:new    ; font-family:'Superclarendon-Regular'; font-size:8.595;">THROUGH</text>
<g style="display:none;">
	<rect x="129.8" y="290" style="display:inline;fill:#FFFFFF;" width="36.5" height="0.3"/>
</g>
<g style="display:none;">
	<rect x="129.8" y="277.7" style="display:inline;fill:#FFFFFF;" width="36.5" height="0.3"/>
</g>
<path style="display:none;fill:#231F20;" d="M183.2,298c-2,0.3-4.5,0.6-7.4,0.6c-3.7,0-8.1-0.5-12.7-1.8
	c-12.2-3.6-14.3-0.3-14.3-0.3l-0.5,0.9l-0.5-0.9c0,0-2.4-3.3-14.6,0.2c-8.3,2.4-15.5,2-20.2,1.2c-0.3,0-0.6-0.1-0.9-0.2
	c1.1,11,7.1,20.5,15.9,26.3v-1.1h1.8v-1.6h0.9v-8.4c0-0.9,0.6-1.7,1.4-2.1v-2.8c0-1.2,1.3-2.7,2.1-3l0,0c1,0.4,2.1,1.9,2.1,3v2.8
	c0.8,0.3,1.4,1.1,1.4,2.1v8.4h0.8v1.6h2v-2.4h1.3v2.4h2.3v-15.6c0-0.1,0-0.1,0-0.2l1.4-3.5c0-0.1,0-0.1,0-0.2v-2.1
	c0-0.1,0.1-0.3,0.1-0.3l2.3-2.2c0.1-0.1,0.2-0.1,0.3-0.1s0.2,0,0.3,0.1l2.3,2.2c0.1,0.1,0.1,0.2,0.1,0.3v2.1l0,0l1.5,3.6
	c0,0.1,0,0.1,0,0.2v15.3h0.4v-2.2h2v2.2h0.9V320h1.4v-0.4h1.8v3.3h0.4v-4.2h2.9v8.6c0.9-0.4,1.8-0.8,2.6-1.3v-11.6l0,0l-0.7-1.2h0.7
	v-0.8h0.4l2.9-2.9l2.9,2.9h0.4v0.9h0.7l-0.7,1.2v7c6.8-5.8,11.3-14.2,12.3-23.6C183.7,298,183.5,298,183.2,298z"/>
<path style="display:none;fill:#FFFFFF;" d="M142.5,284.9c0,0-0.1,0-0.1,0c0,0-0.1-0.1-0.1-0.1c0.1,0,0.1,0,0.2,0
	C142.4,284.8,142.4,284.8,142.5,284.9z"/>
<path style="display:none;fill:#FFFFFF;" d="M134.5,284.6C134.5,284.6,134.5,284.6,134.5,284.6c0,0.1-0.1,0.1-0.1,0
	C134.4,284.6,134.5,284.5,134.5,284.6C134.5,284.5,134.5,284.5,134.5,284.6z"/>
<g>
	<rect y="0" style="fill:#FF4F37;" width="64" height="64"/>
	<g style="enable-background:new    ;">
		<path style="fill:#FFFFFF;" d="M11.1,16.1c0.5,0.7,0.8,1.6,0.8,2.6c0,1.1-0.3,2-0.8,2.8s-1.3,1.1-2.2,1.1c-0.6,0-1.1-0.1-1.4-0.4
			c-0.2-0.1-0.4-0.4-0.7-0.7v0.9H4.9v-9.7h1.9v3.4c0.2-0.3,0.5-0.6,0.8-0.8C7.9,15.2,8.3,15,8.8,15C9.8,15,10.5,15.4,11.1,16.1z
			 M9.5,20.4c0.3-0.4,0.4-0.9,0.4-1.5c0-0.5-0.1-0.9-0.2-1.3C9.5,17,9,16.7,8.3,16.7c-0.7,0-1.2,0.3-1.4,0.9
			c-0.1,0.3-0.2,0.8-0.2,1.3c0,0.6,0.1,1.1,0.4,1.5S7.8,21,8.4,21C8.9,21,9.2,20.8,9.5,20.4z"/>
		<path style="fill:#FFFFFF;" d="M19,21.5c-0.6,0.7-1.5,1.1-2.7,1.1s-2.1-0.4-2.7-1.1s-0.9-1.6-0.9-2.7c0-1,0.3-1.9,0.9-2.7
			s1.5-1.1,2.7-1.1s2.1,0.4,2.7,1.1s0.9,1.6,0.9,2.7C19.9,19.8,19.6,20.7,19,21.5z M17.5,20.4c0.3-0.4,0.4-0.9,0.4-1.7
			s-0.1-1.3-0.4-1.7c-0.3-0.4-0.7-0.6-1.3-0.6s-1,0.2-1.3,0.6c-0.3,0.4-0.4,0.9-0.4,1.7s0.1,1.3,0.4,1.7s0.7,0.6,1.3,0.6
			S17.2,20.8,17.5,20.4z"/>
	</g>
	<g style="enable-background:new    ;">
		<path style="fill:#FFFFFF;" d="M26.8,21.5c-0.6,0.7-1.5,1.1-2.7,1.1s-2.1-0.4-2.7-1.1s-0.9-1.6-0.9-2.7c0-1,0.3-1.9,0.9-2.7
			s1.5-1.1,2.7-1.1s2.1,0.4,2.7,1.1s0.9,1.6,0.9,2.7C27.7,19.8,27.4,20.7,26.8,21.5z M25.3,20.4c0.3-0.4,0.4-0.9,0.4-1.7
			s-0.1-1.3-0.4-1.7c-0.3-0.4-0.7-0.6-1.3-0.6s-1,0.2-1.3,0.6c-0.3,0.4-0.4,0.9-0.4,1.7s0.1,1.3,0.4,1.7s0.7,0.6,1.3,0.6
			S25,20.8,25.3,20.4z"/>
		<path style="fill:#FFFFFF;" d="M28.7,12.7h1.8v5.2l2.4-2.7h2.3l-2.6,2.7l2.7,4.5h-2.3l-1.7-3.1l-0.8,0.8v2.2h-1.8V12.7z"/>
	</g>
	<g style="enable-background:new    ;">
		<path style="fill:#FFFFFF;" d="M36.9,20.1c0,0.3,0.1,0.6,0.3,0.7c0.2,0.2,0.7,0.4,1.3,0.4c0.4,0,0.7-0.1,0.9-0.2
			c0.2-0.1,0.3-0.3,0.3-0.5c0-0.2-0.1-0.4-0.3-0.5c-0.2-0.1-0.8-0.3-2-0.6c-0.8-0.2-1.4-0.5-1.7-0.8c-0.3-0.3-0.5-0.7-0.5-1.3
			c0-0.7,0.3-1.2,0.8-1.7c0.5-0.5,1.2-0.7,2.2-0.7c0.9,0,1.6,0.2,2.2,0.5c0.6,0.4,0.9,1,1,1.8h-1.9c0-0.2-0.1-0.4-0.2-0.6
			c-0.2-0.3-0.6-0.4-1.1-0.4c-0.4,0-0.7,0.1-0.9,0.2s-0.3,0.3-0.3,0.4c0,0.2,0.1,0.4,0.3,0.5c0.2,0.1,0.8,0.3,2,0.5
			c0.7,0.2,1.3,0.4,1.7,0.8c0.4,0.4,0.6,0.8,0.6,1.3c0,0.7-0.3,1.3-0.8,1.7s-1.3,0.7-2.4,0.7c-1.1,0-2-0.2-2.5-0.7S35,20.8,35,20.1
			H36.9z"/>
	</g>
	<g style="enable-background:new    ;">
		<path style="fill:#FFFFFF;" d="M4.2,28.8v-1.3h1v-2h1.8v2h1.2v1.3H7.1v3.8c0,0.3,0,0.5,0.1,0.5c0.1,0.1,0.3,0.1,0.7,0.1
			c0.1,0,0.1,0,0.2,0c0.1,0,0.1,0,0.2,0v1.4l-0.9,0c-0.9,0-1.5-0.1-1.8-0.5c-0.2-0.2-0.3-0.5-0.3-1v-4.4H4.2z"/>
	</g>
	<g style="enable-background:new    ;">
		<path style="fill:#FFFFFF;" d="M14.3,27.4c0.4,0.2,0.7,0.4,0.9,0.7c0.2,0.3,0.3,0.5,0.4,0.8c0,0.3,0.1,0.7,0.1,1.4v4.2h-1.9v-4.4
			c0-0.4-0.1-0.7-0.2-0.9c-0.2-0.3-0.5-0.5-1-0.5c-0.5,0-0.9,0.2-1.1,0.5c-0.3,0.3-0.4,0.8-0.4,1.4v3.9H9.2v-9.6h1.9v3.4
			c0.3-0.4,0.6-0.7,0.9-0.9c0.4-0.2,0.7-0.2,1.1-0.2C13.6,27.2,14,27.3,14.3,27.4z"/>
	</g>
	<g style="enable-background:new    ;">
		<path style="fill:#FFFFFF;" d="M20.5,27.2c0,0,0.1,0,0.2,0v1.9c-0.1,0-0.2,0-0.3,0c-0.1,0-0.2,0-0.2,0c-0.8,0-1.3,0.2-1.5,0.7
			c-0.1,0.3-0.2,0.7-0.2,1.3v3.4h-1.9v-7.2h1.8v1.2c0.3-0.5,0.5-0.8,0.8-1C19.4,27.4,19.9,27.2,20.5,27.2
			C20.5,27.2,20.5,27.2,20.5,27.2z"/>
	</g>
	<g style="enable-background:new    ;">
		<path style="fill:#FFFFFF;" d="M27.5,33.7c-0.6,0.7-1.5,1.1-2.7,1.1s-2.1-0.4-2.7-1.1S21.1,32,21.1,31c0-1,0.3-1.9,0.9-2.7
			s1.5-1.1,2.7-1.1s2.1,0.4,2.7,1.1s0.9,1.6,0.9,2.7C28.4,32,28.1,32.9,27.5,33.7z M26,32.6c0.3-0.4,0.4-0.9,0.4-1.7
			s-0.1-1.3-0.4-1.7c-0.3-0.4-0.7-0.6-1.3-0.6s-1,0.2-1.3,0.6C23.2,29.7,23,30.3,23,31s0.1,1.3,0.4,1.7s0.7,0.6,1.3,0.6
			S25.7,33,26,32.6z"/>
		<path style="fill:#FFFFFF;" d="M31.3,27.4v4.3c0,0.4,0,0.7,0.1,0.9c0.2,0.4,0.5,0.5,1,0.5c0.6,0,1.1-0.3,1.3-0.8
			c0.1-0.3,0.2-0.6,0.2-1.1v-3.9h1.9v7.2H34v-1c0,0-0.1,0.1-0.1,0.2c-0.1,0.1-0.2,0.2-0.2,0.3c-0.3,0.3-0.6,0.4-0.8,0.5
			c-0.3,0.1-0.6,0.1-1,0.1c-1.1,0-1.8-0.4-2.1-1.1c-0.2-0.4-0.3-1-0.3-1.9v-4.3H31.3z"/>
	</g>
	<g style="enable-background:new    ;">
		<path style="fill:#FFFFFF;" d="M40.4,27.4c0.5,0.2,0.8,0.5,1.1,1v-1h1.8v6.8c0,0.9-0.2,1.6-0.5,2.1c-0.5,0.8-1.6,1.2-3.1,1.2
			c-0.9,0-1.7-0.2-2.2-0.5s-0.9-0.9-1-1.6h2c0.1,0.2,0.1,0.4,0.3,0.5c0.2,0.2,0.5,0.3,1,0.3c0.7,0,1.1-0.2,1.4-0.7
			c0.1-0.3,0.2-0.8,0.2-1.5v-0.5c-0.2,0.3-0.4,0.5-0.6,0.7c-0.4,0.3-0.9,0.4-1.5,0.4c-0.9,0-1.7-0.3-2.2-1c-0.5-0.6-0.8-1.5-0.8-2.6
			c0-1.1,0.3-2,0.8-2.7s1.3-1.1,2.2-1.1C39.8,27.2,40.1,27.3,40.4,27.4z M41.1,32.5c0.3-0.3,0.5-0.9,0.5-1.6c0-0.7-0.1-1.2-0.4-1.5
			s-0.7-0.5-1.1-0.5c-0.7,0-1.1,0.3-1.4,0.9c-0.1,0.3-0.2,0.7-0.2,1.2c0,0.4,0.1,0.8,0.2,1.1c0.3,0.6,0.7,0.9,1.4,0.9
			C40.4,33,40.8,32.9,41.1,32.5z"/>
	</g>
	<g style="enable-background:new    ;">
		<path style="fill:#FFFFFF;" d="M49.4,27.4c0.4,0.2,0.7,0.4,0.9,0.7c0.2,0.3,0.3,0.5,0.4,0.8c0,0.3,0.1,0.7,0.1,1.4v4.2h-1.9v-4.4
			c0-0.4-0.1-0.7-0.2-0.9c-0.2-0.3-0.5-0.5-1-0.5c-0.5,0-0.9,0.2-1.1,0.5c-0.3,0.3-0.4,0.8-0.4,1.4v3.9h-1.9v-9.6h1.9v3.4
			c0.3-0.4,0.6-0.7,0.9-0.9c0.4-0.2,0.7-0.2,1.1-0.2C48.7,27.2,49.1,27.3,49.4,27.4z"/>
	</g>
	<g style="enable-background:new    ;">
		<path d="M11.1,40.4c0.5,0.7,0.8,1.6,0.8,2.6c0,1.1-0.3,2-0.8,2.8s-1.3,1.1-2.2,1.1c-0.6,0-1.1-0.1-1.4-0.4
			c-0.2-0.1-0.4-0.4-0.7-0.7v0.9H4.9v-9.7h1.9v3.4c0.2-0.3,0.5-0.6,0.8-0.8c0.3-0.2,0.8-0.3,1.3-0.3C9.8,39.4,10.5,39.8,11.1,40.4z
			 M9.5,44.8c0.3-0.4,0.4-0.9,0.4-1.5c0-0.5-0.1-0.9-0.2-1.3c-0.3-0.6-0.7-0.9-1.4-0.9c-0.7,0-1.2,0.3-1.4,0.9
			c-0.1,0.3-0.2,0.8-0.2,1.3c0,0.6,0.1,1.1,0.4,1.5s0.7,0.6,1.2,0.6C8.9,45.4,9.2,45.2,9.5,44.8z"/>
		<path d="M15.9,42.4c0.3,0,0.6-0.1,0.7-0.2c0.3-0.1,0.4-0.3,0.4-0.5c0-0.3-0.1-0.5-0.3-0.6s-0.5-0.2-0.9-0.2c-0.4,0-0.8,0.1-1,0.3
			c-0.1,0.2-0.2,0.4-0.3,0.7h-1.8c0-0.6,0.2-1.1,0.5-1.5c0.5-0.6,1.3-0.9,2.6-0.9c0.8,0,1.5,0.2,2.1,0.5s0.9,0.9,0.9,1.8v3.3
			c0,0.2,0,0.5,0,0.8c0,0.2,0.1,0.4,0.1,0.5c0.1,0.1,0.2,0.2,0.3,0.2v0.3h-2c-0.1-0.1-0.1-0.3-0.1-0.4c0-0.1,0-0.3-0.1-0.4
			c-0.3,0.3-0.6,0.5-0.9,0.7c-0.4,0.2-0.9,0.3-1.4,0.3c-0.7,0-1.2-0.2-1.6-0.6c-0.4-0.4-0.6-0.9-0.6-1.6c0-0.9,0.3-1.5,1-1.9
			c0.4-0.2,0.9-0.4,1.7-0.5L15.9,42.4z M17,43.3c-0.1,0.1-0.2,0.1-0.4,0.2s-0.3,0.1-0.5,0.1l-0.4,0.1c-0.4,0.1-0.7,0.2-0.9,0.3
			c-0.3,0.2-0.4,0.4-0.4,0.8c0,0.3,0.1,0.5,0.3,0.7c0.2,0.1,0.4,0.2,0.7,0.2c0.4,0,0.8-0.1,1.1-0.4c0.3-0.2,0.5-0.7,0.5-1.3V43.3z"
			/>
		<path d="M24.4,39.4c0,0,0.1,0,0.2,0v1.9c-0.1,0-0.2,0-0.3,0c-0.1,0-0.2,0-0.2,0c-0.8,0-1.3,0.2-1.5,0.7c-0.1,0.3-0.2,0.7-0.2,1.3
			v3.4h-1.9v-7.2h1.8v1.2c0.3-0.5,0.5-0.8,0.8-1C23.3,39.6,23.8,39.4,24.4,39.4C24.3,39.4,24.4,39.4,24.4,39.4z"/>
	</g>
	<g style="enable-background:new    ;">
		<path d="M26.5,44.4c0,0.3,0.1,0.6,0.3,0.7c0.2,0.2,0.7,0.4,1.3,0.4c0.4,0,0.7-0.1,0.9-0.2c0.2-0.1,0.3-0.3,0.3-0.5
			c0-0.2-0.1-0.4-0.3-0.5c-0.2-0.1-0.8-0.3-2-0.6c-0.8-0.2-1.4-0.5-1.7-0.8c-0.3-0.3-0.5-0.7-0.5-1.3c0-0.7,0.3-1.2,0.8-1.7
			c0.5-0.5,1.2-0.7,2.2-0.7c0.9,0,1.6,0.2,2.2,0.5c0.6,0.4,0.9,1,1,1.8h-1.9c0-0.2-0.1-0.4-0.2-0.6c-0.2-0.3-0.6-0.4-1.1-0.4
			c-0.4,0-0.7,0.1-0.9,0.2s-0.3,0.3-0.3,0.4c0,0.2,0.1,0.4,0.3,0.5c0.2,0.1,0.8,0.3,2,0.5c0.7,0.2,1.3,0.4,1.7,0.8
			c0.4,0.4,0.6,0.8,0.6,1.3c0,0.7-0.3,1.3-0.8,1.7S29,47,27.9,47c-1.1,0-2-0.2-2.5-0.7s-0.8-1.1-0.8-1.8H26.5z"/>
	</g>
	<rect x="4.9" y="50.4" width="12.1" height="1.9"/>
</g>
</svg>
