<?xml version="1.0" encoding="utf-8"?>
<!-- Generator: Adobe Illustrator 18.1.0, SVG Export Plug-In . SVG Version: 6.00 Build 0)  -->
<svg version="1.1" id="Layer_1" xmlns="http://www.w3.org/2000/svg" xmlns:xlink="http://www.w3.org/1999/xlink" x="0px" y="0px"
	 viewBox="118 323.6 572 572" enable-background="new 118 323.6 572 572" xml:space="preserve">
<rect x="118" y="323.6" fill="#F26522" width="572" height="572"/>
<path display="none" fill="#F15B2A" d="M251,74.8c48.8-14.4,87.2-18.7,113.9-12.8c12.3,2.7,19.5,7,23.4,10.3
	c3.8-3.4,10.8-7.7,22.7-10.3c26.1-5.8,64.1-1.4,113,12.8c74.6,22,140,17.7,184.5,8.8c0.5-7.6,0.9-15,0.9-22.7
	c0-178-144.3-322.3-322.3-322.3S64.5-116.9,64.5,61c0,7.6,0.4,15,0.7,22.3C109.9,92.3,175.8,97,251,74.8z"/>
<text transform="matrix(1 0 0 1 4.187573e-04 258.0683)" display="none" font-family="'ArialMT'" font-size="21.6197"> </text>
<text transform="matrix(1 0 0 1 115.2095 47.0519)" display="none" fill="#FFFFFF" enable-background="new    " font-family="'Superclarendon-Regular'" font-size="161.1695" letter-spacing="5">BARS</text>
<text transform="matrix(1 0 0 1 217.1242 -145.6699)" display="none" fill="#FFFFFF" enable-background="new    " font-family="'Superclarendon-Regular'" font-size="79.3202" letter-spacing="1">BOOKS</text>
<text transform="matrix(1 0 0 1 143.8183 -80.2667)" display="none" fill="#FFFFFF" enable-background="new    " font-family="'Superclarendon-Regular'" font-size="76.8182" letter-spacing="1">THROUGH</text>
<g display="none">
	<rect x="223.6" y="23.5" display="inline" fill="#FFFFFF" width="326.6" height="2.7"/>
</g>
<g display="none">
	<rect x="223.6" y="-86.6" display="inline" fill="#FFFFFF" width="326.6" height="2.7"/>
</g>
<path display="none" fill="#231F20" d="M701,95.2c-18,3.1-40.5,5.6-66.1,5.6c-33.3,0-72.1-4.1-113.9-16.4
	C412.2,52.3,392.9,81.9,392.8,82l-4.1,7.7l-4.3-7.7c-0.2-0.2-21.3-29.9-130.3,2.2C180,106,115.3,102.2,74,95c-2.5-0.4-5-0.9-7.6-1.4
	c9.9,98.2,63.8,183.2,141.8,235.3v-10.1h16v-14.1h8.1V230c0-8.3,5.2-15.5,12.4-18.4v-24.7c0-10.4,11.4-24.1,18.9-27l0,0
	c9.2,3.2,18.9,16.8,18.9,27v24.7c7.2,2.9,12.4,10.1,12.4,18.4v74.8h7v14.1h18v-21.6h11.4v21.6h20.7V179.9c0-0.5,0.2-1.1,0.4-1.6
	l12.1-31c0.2-0.5,0.4-1.1,0.4-1.6v-18.9c0-1.3,0.5-2.3,1.3-3.1l20.4-19.3c0.7-0.7,1.8-1.1,2.9-1.1s2.2,0.4,2.9,1.1l20.2,19.3
	c0.9,0.7,1.3,2,1.3,3.1v18.9l0,0l13.7,32.6c0.2,0.5,0.4,1.1,0.4,1.6V317h3.4v-19.8H449V317h8.3v-25.2h12.1V288h16v29.4h3.8v-37.1
	h26.1v76.6c7.9-3.4,15.9-7.4,23.6-11.4V242.2l0,0l-5.9-11h5.9v-7.4h3.4l25.8-25.8l25.9,25.8h3.4v7.6h5.9l-5.9,11v62.5
	c60.5-52.2,101.4-126.8,109.9-211C705.3,94.5,703.2,94.8,701,95.2z"/>
<path display="none" fill="#FFFFFF" d="M336.7-22.4c-0.4,0.2-0.9,0.4-1.3,0.2c-0.4-0.2-0.5-0.7-0.7-1.3c0.5-0.2,1.1-0.4,1.4-0.2
	S336.5-22.8,336.7-22.4z"/>
<path display="none" fill="#FFFFFF" d="M265.9-25.3c0,0.2,0,0.4,0,0.7c-0.4-0.2-0.7-0.2-1.1-0.4c0.2-0.2,0.4-0.5,0.5-0.5
	C265.4-25.7,265.6-25.5,265.9-25.3z"/>
<text transform="matrix(1 0 0 1 154.5788 523.4184)" fill="#FFFFFF" font-family="'Helvetica-Bold'" font-size="120.0763" letter-spacing="-1">bo</text>
<text transform="matrix(1 0 0 1 296.5475 523.4184)" fill="#FFFFFF" font-family="'Helvetica-Bold'" font-size="120.0763" letter-spacing="-3">ok</text>
<text transform="matrix(1 0 0 1 426.9861 523.4184)" fill="#FFFFFF" font-family="'Helvetica-Bold'" font-size="120.0763">s </text>
<text transform="matrix(1 0 0 1 154.5788 632.4178)" fill="#FFFFFF" font-family="'Helvetica-Bold'" font-size="120.0763" letter-spacing="-1">t</text>
<text transform="matrix(1 0 0 1 192.2328 632.4178)" fill="#FFFFFF" font-family="'Helvetica-Bold'" font-size="120.0763" letter-spacing="-5">h</text>
<text transform="matrix(1 0 0 1 258.353 632.4178)" fill="#FFFFFF" font-family="'Helvetica-Bold'" font-size="120.0763" letter-spacing="-1">r</text>
<text transform="matrix(1 0 0 1 302.6732 632.4178)" fill="#FFFFFF" font-family="'Helvetica-Bold'" font-size="120.0763" letter-spacing="-3">ou</text>
<text transform="matrix(1 0 0 1 439.7773 632.4178)" fill="#FFFFFF" font-family="'Helvetica-Bold'" font-size="120.0763" letter-spacing="-5">g</text>
<text transform="matrix(1 0 0 1 505.8985 632.4178)" fill="#FFFFFF" font-family="'Helvetica-Bold'" font-size="120.0763">h</text>
<text transform="matrix(1 0 0 1 579.2243 632.4178)" font-family="'Helvetica-Bold'" font-size="120.0763"> </text>
<text transform="matrix(1 0 0 1 154.5788 741.2369)" font-family="'Helvetica-Bold'" font-size="120.0763" letter-spacing="-1">bar</text>
<text transform="matrix(1 0 0 1 334.2016 741.2369)" font-family="'Helvetica-Bold'" font-size="120.0763">s</text>
<rect x="161.8" y="773.9" width="108.1" height="16.8"/>
</svg>
